#define shade_toggled_width 14
#define shade_toggled_height 14
static unsigned char shade_toggled_bits[] = {
   0x00, 0x00, 0x00, 0x00, 0x00, 0x00, 0x00, 0x00, 0x80, 0x03, 0xc0, 0x07,
   0xc0, 0x07, 0xc0, 0x07, 0x80, 0x03, 0x00, 0x00, 0x00, 0x00, 0x00, 0x00,
   0x00, 0x00, 0x00, 0x00 };
